<?xml version="1.0" encoding="iso-8859-1"?>
<!-- Generator: Adobe Illustrator 18.1.1, SVG Export Plug-In . SVG Version: 6.00 Build 0)  -->
<svg version="1.1" id="Capa_1" xmlns="http://www.w3.org/2000/svg" xmlns:xlink="http://www.w3.org/1999/xlink" x="0px" y="0px"
	 viewBox="0 0 478.165 478.165" style="enable-background:new 0 0 478.165 478.165;" xml:space="preserve">
<g>
	<polygon id="DesignBump_3_" points="318.009,287.277 299.899,303.216 299.899,132.83 383.438,132.83 239.112,0 94.826,132.83 
		177.708,132.83 177.708,175.188 160.494,162.676 55.836,260.261 108.653,260.261 108.653,478.165 175.616,478.165 175.616,478.165 
		194.982,478.165 194.982,478.165 204.286,478.165 204.286,260.261 263.001,260.261 193.647,193.019 193.647,111.592 
		135.51,111.592 239.112,16.297 342.715,111.592 283.92,111.592 283.92,321.147 215.224,382.532 273.301,382.532 273.301,478.165 
		282.087,478.165 282.087,478.165 301.393,478.165 301.393,478.165 368.954,478.165 368.954,382.532 422.329,382.532 	"/>
</g>
<g>
</g>
<g>
</g>
<g>
</g>
<g>
</g>
<g>
</g>
<g>
</g>
<g>
</g>
<g>
</g>
<g>
</g>
<g>
</g>
<g>
</g>
<g>
</g>
<g>
</g>
<g>
</g>
<g>
</g>
</svg>
